<?xml version="1.0" encoding="UTF-8" standalone="no"?>
<svg
   xmlns:dc="http://purl.org/dc/elements/1.1/"
   xmlns:cc="http://creativecommons.org/ns#"
   xmlns:rdf="http://www.w3.org/1999/02/22-rdf-syntax-ns#"
   xmlns:svg="http://www.w3.org/2000/svg"
   xmlns="http://www.w3.org/2000/svg"
   xmlns:xlink="http://www.w3.org/1999/xlink"
   version="1.1"
   id="svg2"
   height="32"
   width="32">
  <defs
     id="defs4" />
  <metadata
     id="metadata7">
    <rdf:RDF>
      <cc:Work
         rdf:about="">
        <dc:format>image/svg+xml</dc:format>
        <dc:type
           rdf:resource="http://purl.org/dc/dcmitype/StillImage" />
        <dc:title />
      </cc:Work>
    </rdf:RDF>
  </metadata>
  <g
     transform="translate(0,-1020.3622)"
     id="layer1">
    <path
       id="path3803"
       d="M 16,31 C 7.7157292,31 1.0000002,24.284272 1,16 0.99999978,7.7157292 7.7157284,1.0000002 16,1 c 8.284271,-2.2e-7 15,6.7157284 15,15 l 0,0 c 0,9 -7,2 -10,5 -3,3 4,10 -5,10 z"
       style="fill:none;stroke:#303030;stroke-width:2;stroke-linecap:round;stroke-linejoin:round;stroke-miterlimit:4;stroke-opacity:1;stroke-dashoffset:0"
       transform="translate(0,1020.3622)" />
    <path
       transform="translate(7.8416503,1027.6516)"
       d="m 18,5.5 a 1.5,1.5 0 1 1 -3,0 1.5,1.5 0 1 1 3,0 z"
       id="path3806"
       style="fill:none;stroke:#303030;stroke-width:1;stroke-linecap:round;stroke-linejoin:round;stroke-miterlimit:4;stroke-opacity:1;stroke-dasharray:none;stroke-dashoffset:0" />
    <use
       height="32"
       width="32"
       transform="translate(-16.557204,0.08382537)"
       id="use3808"
       xlink:href="#path3806"
       y="0"
       x="0" />
    <use
       height="32"
       width="32"
       transform="translate(-11.535321,-5.1648736)"
       id="use3814"
       xlink:href="#path3806"
       y="0"
       x="0" />
    <use
       height="32"
       width="32"
       transform="translate(-16.143359,6.4815731)"
       id="use3816"
       xlink:href="#path3806"
       y="0"
       x="0" />
    <use
       height="32"
       width="32"
       transform="translate(-4.3743687,-5.2309513)"
       id="use3818"
       xlink:href="#path3806"
       y="0"
       x="0" />
    <use
       height="32"
       width="32"
       transform="translate(-11.402893,11.31371)"
       id="use3834"
       xlink:href="#path3806"
       y="0"
       x="0" />
  </g>
</svg>
