<?xml version="1.0" encoding="UTF-8" standalone="no"?>
<!-- Created with Inkscape (http://www.inkscape.org/) -->

<svg
   xmlns:dc="http://purl.org/dc/elements/1.1/"
   xmlns:cc="http://creativecommons.org/ns#"
   xmlns:rdf="http://www.w3.org/1999/02/22-rdf-syntax-ns#"
   xmlns:svg="http://www.w3.org/2000/svg"
   xmlns="http://www.w3.org/2000/svg"
   xmlns:xlink="http://www.w3.org/1999/xlink"
   xmlns:inkscape="http://www.inkscape.org/namespaces/inkscape"
   version="1.1"
   width="32"
   height="32"
   id="svg2">
  <defs
     id="defs4" />
  <metadata
     id="metadata7">
    <rdf:RDF>
      <cc:Work
         rdf:about="">
        <dc:format>image/svg+xml</dc:format>
        <dc:type
           rdf:resource="http://purl.org/dc/dcmitype/StillImage" />
        <dc:title />
      </cc:Work>
    </rdf:RDF>
  </metadata>
  <g
     transform="translate(0,-1020.3622)"
     id="layer1">
    <g
       id="g3774">
      <g
         transform="translate(1,0)"
         id="g3765">
        <path
           d="M 7.5,1 C 6.115,1 5,2.115 5,3.5 L 5,7.59375 C 5.7486855,7.2121166 6.6020334,7 7.5,7 8.3979666,7 9.2513145,7.2121166 10,7.59375 L 10,3.5 C 10,2.115 8.885,1 7.5,1 z M 5,17.40625 5,28.5 C 5,29.885 6.115,31 7.5,31 8.885,31 10,29.885 10,28.5 L 10,17.40625 C 9.2513145,17.787883 8.3979666,18 7.5,18 6.6020334,18 5.7486855,17.787883 5,17.40625 z"
           inkscape:connector-curvature="0"
           transform="translate(0,1020.3622)"
           id="rect2988"
           style="fill:none;stroke:#333333;stroke-width:2;stroke-miterlimit:4;stroke-opacity:1;stroke-dasharray:none" />
        <path
           d="m 13,11.5 a 5.5,5.5 0 1 1 -11,0 5.5,5.5 0 1 1 11,0 z"
           transform="translate(0,1021.3622)"
           id="path3760"
           style="fill:none;stroke:#333333;stroke-width:2;stroke-linecap:round;stroke-linejoin:round;stroke-miterlimit:4;stroke-opacity:1;stroke-dasharray:none" />
      </g>
      <use
         transform="matrix(1,0,0,-1,15,2072.7244)"
         id="use3769"
         x="0"
         y="0"
         width="32"
         height="32"
         xlink:href="#g3765" />
    </g>
  </g>
</svg>
