<?xml version="1.0" encoding="UTF-8" standalone="no"?>
<svg
   xmlns:dc="http://purl.org/dc/elements/1.1/"
   xmlns:cc="http://creativecommons.org/ns#"
   xmlns:rdf="http://www.w3.org/1999/02/22-rdf-syntax-ns#"
   xmlns:svg="http://www.w3.org/2000/svg"
   xmlns="http://www.w3.org/2000/svg"
   version="1.1"
   id="svg2"
   height="32"
   width="32">
  <defs
     id="defs4" />
  <metadata
     id="metadata7">
    <rdf:RDF>
      <cc:Work
         rdf:about="">
        <dc:format>image/svg+xml</dc:format>
        <dc:type
           rdf:resource="http://purl.org/dc/dcmitype/StillImage" />
      </cc:Work>
    </rdf:RDF>
  </metadata>
  <g
     transform="translate(0,-1020.3622)"
     id="layer1">
    <path
       transform="translate(0,1020.3622)"
       id="path2987"
       d="M 24.5,1.5 C 25,1 26,1 26.5,1.5 l 4,4 C 31,6 31,7 30.5,7.5 L 10,28 1,31 4,22 z"
       style="fill:none;stroke:#333333;stroke-width:2;stroke-linecap:round;stroke-linejoin:round;stroke-miterlimit:4;stroke-opacity:1;stroke-dasharray:none" />
    <path
       transform="translate(0,1020.3622)"
       id="path3757"
       d="M 22,8 7,23"
       style="fill:none;stroke:#333333;stroke-width:1px;stroke-linecap:round;stroke-linejoin:round;stroke-opacity:1" />
    <path
       transform="translate(0,1020.3622)"
       id="path3759"
       d="M 24,10 9,25"
       style="fill:none;stroke:#333333;stroke-width:1px;stroke-linecap:round;stroke-linejoin:round;stroke-opacity:1" />
    <path
       transform="translate(0,1020.3622)"
       id="path3761"
       d="M 2.5200893,26.167411 5.7165066,29.463493 1,31 z"
       style="fill:#333333;fill-opacity:1;stroke:none;stroke-linecap:round;stroke-linejoin:round" />
    <path
       transform="translate(0,1020.3622)"
       id="path3763"
       d="m 20,6 6,6"
       style="fill:none;stroke:#333333;stroke-width:1px;stroke-linecap:round;stroke-linejoin:round;stroke-opacity:1" />
    <path
       transform="translate(0,1020.3622)"
       id="path3765"
       d="M 27,11 21,5"
       style="fill:none;stroke:#333333;stroke-width:1px;stroke-linecap:round;stroke-linejoin:round;stroke-opacity:1" />
  </g>
</svg>
