<?xml version="1.0" encoding="UTF-8" standalone="no"?>
<svg
   xmlns:dc="http://purl.org/dc/elements/1.1/"
   xmlns:cc="http://creativecommons.org/ns#"
   xmlns:rdf="http://www.w3.org/1999/02/22-rdf-syntax-ns#"
   xmlns:svg="http://www.w3.org/2000/svg"
   xmlns="http://www.w3.org/2000/svg"
   xmlns:xlink="http://www.w3.org/1999/xlink"
   version="1.1"
   id="svg2"
   height="32"
   width="32">
  <defs
     id="defs4" />
  <metadata
     id="metadata7">
    <rdf:RDF>
      <cc:Work
         rdf:about="">
        <dc:format>image/svg+xml</dc:format>
        <dc:type
           rdf:resource="http://purl.org/dc/dcmitype/StillImage" />
        <dc:title />
      </cc:Work>
    </rdf:RDF>
  </metadata>
  <g
     transform="translate(0,-1020.3622)"
     id="layer1">
    <path
       id="path4038"
       d="M 4,1044.3622 5.0267857,1043.3354 18,1030.3622 l 4,4 0,0 L 8.9933036,1047.3689 8,1048.3622 c -1,1 -4,1 -6,3 l -1,-1 c 2,-2 2,-5 3,-6 z"
       style="fill:none;stroke:#333333;stroke-width:2;stroke-linecap:butt;stroke-linejoin:round;stroke-miterlimit:4;stroke-opacity:1;stroke-dasharray:none" />
    <path
       transform="translate(0,1020.3622)"
       id="path4548"
       d="M 18,10 17,9 c 0,0 -0.9,-1.1 0.1,-2.1 1,-1 2.1,-0.1 2.1,-0.1 l 1,1 c 0,0 -0.3,-3.3 1.7,-5.3 2,-2 5.4,-1.8 7.4,0.2 2,2 2.2,5.4 0.2,7.4 -2,2 -5.3,1.7 -5.3,1.7 l 1,1 c 0,0 0.9,1.1 -0.1,2.1 -1,1 -2.1,0.1 -2.1,0.1 l -1,-1"
       style="fill:none;stroke:#333333;stroke-width:2;stroke-linecap:butt;stroke-linejoin:round;stroke-miterlimit:4;stroke-opacity:1;stroke-dasharray:none" />
    <path
       transform="translate(0,1020.3622)"
       id="path4550"
       d="M 8,22 z"
       style="fill:#bfff00;fill-opacity:1;stroke:#333333;stroke-width:2;stroke-linecap:round;stroke-linejoin:round;stroke-miterlimit:4;stroke-opacity:1;stroke-dasharray:none" />
    <path
       id="path4552"
       d="m 7.9,1041.3622 1,1"
       style="fill:#bfff00;fill-opacity:1;stroke:#333333;stroke-width:1;stroke-linecap:round;stroke-linejoin:round;stroke-miterlimit:4;stroke-opacity:1;stroke-dasharray:none" />
    <use
       height="32"
       width="32"
       transform="translate(2,-2)"
       id="use4556"
       xlink:href="#path4552"
       y="0"
       x="0" />
    <use
       height="32"
       width="32"
       transform="translate(4,-4)"
       id="use4558"
       xlink:href="#path4552"
       y="0"
       x="0" />
    <use
       height="32"
       width="32"
       transform="translate(6,-6)"
       id="use4560"
       xlink:href="#path4552"
       y="0"
       x="0" />
  </g>
</svg>
