<?xml version="1.0" encoding="UTF-8" standalone="no"?>
<!-- Created with Inkscape (http://www.inkscape.org/) -->

<svg
   xmlns:dc="http://purl.org/dc/elements/1.1/"
   xmlns:cc="http://creativecommons.org/ns#"
   xmlns:rdf="http://www.w3.org/1999/02/22-rdf-syntax-ns#"
   xmlns:svg="http://www.w3.org/2000/svg"
   xmlns="http://www.w3.org/2000/svg"
   xmlns:xlink="http://www.w3.org/1999/xlink"
   xmlns:inkscape="http://www.inkscape.org/namespaces/inkscape"
   version="1.1"
   width="128"
   height="128"
   id="svg2">
  <defs
     id="defs4">
    <linearGradient
       id="linearGradient3757">
      <stop
         id="stop3759"
         style="stop-color:#dddddd;stop-opacity:1"
         offset="0" />
      <stop
         id="stop3761"
         style="stop-color:#eeeeee;stop-opacity:1"
         offset="1" />
    </linearGradient>
    <clipPath
       id="clipPath3762">
      <rect
         width="16"
         height="16"
         ry="0"
         x="0"
         y="1036.3622"
         id="rect3764"
         style="fill:#000000;fill-opacity:0.33734939;stroke:none" />
    </clipPath>
    <linearGradient
       x1="25"
       y1="32"
       x2="25"
       y2="0"
       id="linearGradient3776"
       xlink:href="#linearGradient3757"
       gradientUnits="userSpaceOnUse" />
  </defs>
  <metadata
     id="metadata7">
    <rdf:RDF>
      <cc:Work
         rdf:about="">
        <dc:format>image/svg+xml</dc:format>
        <dc:type
           rdf:resource="http://purl.org/dc/dcmitype/StillImage" />
        <dc:title />
      </cc:Work>
    </rdf:RDF>
  </metadata>
  <g
     transform="translate(0,-924.3622)"
     id="layer1">
    <g
       transform="matrix(8,0,0,8,0,-7366.5354)"
       id="g3771">
      <path
         d="M 32,16 A 16,16 0 1 1 0,16 16,16 0 1 1 32,16 z"
         transform="matrix(0.5,0,0,0.5,0,1036.3622)"
         id="path2987"
         style="fill:url(#linearGradient3776);fill-opacity:1;stroke:none" />
      <path
         d="m 6,1044.5497 c -0.03942,0.016 -2.6978331,-1.5564 0.75,-3.9063 2.383835,-1.6246 -0.125,-3.2812 -0.125,-3.2812"
         inkscape:connector-curvature="0"
         id="path3828"
         style="fill:none;stroke:#333333;stroke-width:1;stroke-linecap:round;stroke-linejoin:round;stroke-miterlimit:4;stroke-opacity:1;stroke-dasharray:none" />
      <path
         d="m 10,1052.3622 -2.5,-0.5 c 0,0 -1.028164,-0.1409 -1,-1 0.033805,-1.0311 1,-1 1,-1 l 2,0 -4,-4 c 0,0 -0.75,-0.75 0,-1.5 0.75,-0.75 1.5,0 1.5,0 l 3,3 -1,-1 c 0,0 -0.75,-0.75 0,-1.5 0.75,-0.75 1.5,0 1.5,0 l 1.5,1.5 -1,-1 c 0,0 -0.75,-0.75 0,-1.5 0.75,-0.75 1.5,0 1.5,0 l 1.5,1.5 -1,-1 c 0,0 -0.75,-0.75 0,-1.5 0.75,-0.75 1.5,0 1.5,0 l 2,2 0,8 -4,0 z"
         inkscape:connector-curvature="0"
         clip-path="url(#clipPath3762)"
         id="path3822"
         style="fill:#f6e1a8;fill-opacity:1;stroke:#a86228;stroke-width:1;stroke-linecap:round;stroke-linejoin:round;stroke-miterlimit:4;stroke-opacity:1;stroke-dasharray:none" />
    </g>
  </g>
</svg>
