<?xml version="1.0" encoding="UTF-8" standalone="no"?>
<!-- Created with Inkscape (http://www.inkscape.org/) -->

<svg
   xmlns:dc="http://purl.org/dc/elements/1.1/"
   xmlns:cc="http://creativecommons.org/ns#"
   xmlns:rdf="http://www.w3.org/1999/02/22-rdf-syntax-ns#"
   xmlns:svg="http://www.w3.org/2000/svg"
   xmlns="http://www.w3.org/2000/svg"
   xmlns:xlink="http://www.w3.org/1999/xlink"
   xmlns:inkscape="http://www.inkscape.org/namespaces/inkscape"
   version="1.1"
   width="128"
   height="128"
   id="svg2">
  <defs
     id="defs4">
    <linearGradient
       id="linearGradient3757">
      <stop
         id="stop3759"
         style="stop-color:#dddddd;stop-opacity:1"
         offset="0" />
      <stop
         id="stop3761"
         style="stop-color:#eeeeee;stop-opacity:1"
         offset="1" />
    </linearGradient>
    <linearGradient
       x1="25"
       y1="32"
       x2="25"
       y2="0"
       id="linearGradient3763"
       xlink:href="#linearGradient3757"
       gradientUnits="userSpaceOnUse" />
  </defs>
  <metadata
     id="metadata7">
    <rdf:RDF>
      <cc:Work
         rdf:about="">
        <dc:format>image/svg+xml</dc:format>
        <dc:type
           rdf:resource="http://purl.org/dc/dcmitype/StillImage" />
        <dc:title />
      </cc:Work>
    </rdf:RDF>
  </metadata>
  <g
     transform="translate(0,-924.3622)"
     id="layer1">
    <path
       d="M 32,16 A 16,16 0 1 1 0,16 16,16 0 1 1 32,16 z"
       transform="matrix(4,0,0,4,0,924.3622)"
       id="path2987"
       style="fill:url(#linearGradient3763);fill-opacity:1;stroke:none" />
    <path
       d="m 48,989.8622 c -0.31536,0.12984 -21.582665,-12.45126 6,-31.25 19.07068,-12.99747 -1,-26.25 -1,-26.25"
       inkscape:connector-curvature="0"
       id="path3828"
       style="fill:none;stroke:#333333;stroke-width:8;stroke-linecap:round;stroke-linejoin:round;stroke-miterlimit:4;stroke-opacity:1;stroke-dasharray:none" />
    <path
       d="m 80,1052.3622 -20,-4 c 0,0 -8.225312,-1.1276 -8,-8 0.27044,-8.2488 8,-8 8,-8 l 16,0 -32,-32 c 0,0 -6,-6 0,-12 6,-6 12,0 12,0 l 24,24 -8,-8 c 0,0 -6,-6 0,-12 6,-6 12,0 12,0 l 12,12 -8,-8 c 0,0 -6,-6 0,-12 6,-6 12,0 12,0 l 12,12 -8,-8 c 0,0 -6,-6 0,-12 6,-6 12,0 12,0 l 16,16 0,64 -32,0 z"
       inkscape:connector-curvature="0"
       id="path3822"
       style="fill:#f6e1a8;fill-opacity:1;stroke:#a86228;stroke-width:8;stroke-linecap:round;stroke-linejoin:round;stroke-miterlimit:4;stroke-opacity:1;stroke-dasharray:none" />
  </g>
</svg>
