<?xml version="1.0" encoding="UTF-8" standalone="no"?>
<!-- Created with Inkscape (http://www.inkscape.org/) -->

<svg
   xmlns:dc="http://purl.org/dc/elements/1.1/"
   xmlns:cc="http://creativecommons.org/ns#"
   xmlns:rdf="http://www.w3.org/1999/02/22-rdf-syntax-ns#"
   xmlns:svg="http://www.w3.org/2000/svg"
   xmlns="http://www.w3.org/2000/svg"
   xmlns:xlink="http://www.w3.org/1999/xlink"
   xmlns:inkscape="http://www.inkscape.org/namespaces/inkscape"
   version="1.1"
   width="32"
   height="32"
   id="svg2">
  <defs
     id="defs4">
    <linearGradient
       id="linearGradient3757">
      <stop
         id="stop3759"
         style="stop-color:#dddddd;stop-opacity:1"
         offset="0" />
      <stop
         id="stop3761"
         style="stop-color:#eeeeee;stop-opacity:1"
         offset="1" />
    </linearGradient>
    <linearGradient
       x1="25"
       y1="32"
       x2="25"
       y2="0"
       id="linearGradient3763"
       xlink:href="#linearGradient3757"
       gradientUnits="userSpaceOnUse" />
  </defs>
  <metadata
     id="metadata7">
    <rdf:RDF>
      <cc:Work
         rdf:about="">
        <dc:format>image/svg+xml</dc:format>
        <dc:type
           rdf:resource="http://purl.org/dc/dcmitype/StillImage" />
        <dc:title />
      </cc:Work>
    </rdf:RDF>
  </metadata>
  <g
     transform="translate(0,-1020.3622)"
     id="layer1">
    <path
       d="M 32,16 A 16,16 0 1 1 0,16 16,16 0 1 1 32,16 z"
       transform="translate(0,1020.3622)"
       id="path2987"
       style="fill:url(#linearGradient3763);fill-opacity:1;stroke:none" />
    <path
       d="m 12,16.375 c -0.07884,0.03246 -5.3956662,-3.112814 1.5,-7.8125001 4.76767,-3.2493672 -0.25,-6.5625 -0.25,-6.5625"
       inkscape:connector-curvature="0"
       transform="translate(0,1020.3622)"
       id="path3828"
       style="fill:none;stroke:#333333;stroke-width:2;stroke-linecap:round;stroke-linejoin:round;stroke-miterlimit:4;stroke-opacity:1;stroke-dasharray:none" />
    <path
       d="m 20,1052.3622 -5,-1 c 0,0 -2.056328,-0.2819 -2,-2 0.06761,-2.0622 2,-2 2,-2 l 4,0 -8,-8 c 0,0 -1.5,-1.5 0,-3 1.5,-1.5 3,0 3,0 l 6,6 -2,-2 c 0,0 -1.5,-1.5 0,-3 1.5,-1.5 3,0 3,0 l 3,3 -2,-2 c 0,0 -1.5,-1.5 0,-3 1.5,-1.5 3,0 3,0 l 3,3 -2,-2 c 0,0 -1.5,-1.5 0,-3 1.5,-1.5 3,0 3,0 l 4,4 0,16 -8,0 z"
       inkscape:connector-curvature="0"
       id="path3822"
       style="fill:#f6e1a8;fill-opacity:1;stroke:#a86228;stroke-width:2;stroke-linecap:round;stroke-linejoin:round;stroke-miterlimit:4;stroke-opacity:1;stroke-dasharray:none" />
  </g>
</svg>
