<?xml version="1.0" encoding="UTF-8" standalone="no"?>
<!-- Created with Inkscape (http://www.inkscape.org/) -->

<svg
   xmlns:dc="http://purl.org/dc/elements/1.1/"
   xmlns:cc="http://creativecommons.org/ns#"
   xmlns:rdf="http://www.w3.org/1999/02/22-rdf-syntax-ns#"
   xmlns:svg="http://www.w3.org/2000/svg"
   xmlns="http://www.w3.org/2000/svg"
   xmlns:xlink="http://www.w3.org/1999/xlink"
   xmlns:inkscape="http://www.inkscape.org/namespaces/inkscape"
   version="1.1"
   width="90"
   height="90"
   id="svg2">
  <defs
     id="defs4">
    <linearGradient
       id="linearGradient4268">
      <stop
         id="stop4270"
         style="stop-color:#ffffff;stop-opacity:0.50196081"
         offset="0" />
      <stop
         id="stop4272"
         style="stop-color:#ffffff;stop-opacity:0"
         offset="1" />
    </linearGradient>
    <linearGradient
       id="linearGradient4245">
      <stop
         id="stop4247"
         style="stop-color:#000000;stop-opacity:0.26875001"
         offset="0" />
      <stop
         id="stop4249"
         style="stop-color:#000000;stop-opacity:0.03125"
         offset="1" />
    </linearGradient>
    <linearGradient
       id="linearGradient4231">
      <stop
         id="stop4233"
         style="stop-color:#c9c9c9;stop-opacity:1"
         offset="0" />
      <stop
         id="stop4235"
         style="stop-color:#f0f0f0;stop-opacity:1"
         offset="1" />
    </linearGradient>
    <linearGradient
       id="linearGradient4747">
      <stop
         id="stop4749"
         style="stop-color:#000000;stop-opacity:0.25098041"
         offset="0" />
      <stop
         id="stop4751"
         style="stop-color:#000000;stop-opacity:0.0627451"
         offset="1" />
    </linearGradient>
    <linearGradient
       id="linearGradient3798">
      <stop
         id="stop3800"
         style="stop-color:#f2cb86;stop-opacity:1"
         offset="0" />
      <stop
         id="stop3802"
         style="stop-color:#f6daa8;stop-opacity:1"
         offset="1" />
    </linearGradient>
    <linearGradient
       id="linearGradient3786">
      <stop
         id="stop3788"
         style="stop-color:#ffffff;stop-opacity:1"
         offset="0" />
      <stop
         id="stop3790"
         style="stop-color:#dfdfdf;stop-opacity:1"
         offset="1" />
    </linearGradient>
    <linearGradient
       id="linearGradient3757">
      <stop
         id="stop3759"
         style="stop-color:#eaeaea;stop-opacity:1"
         offset="0" />
      <stop
         id="stop3761"
         style="stop-color:#dcdcdc;stop-opacity:1"
         offset="1" />
    </linearGradient>
    <linearGradient
       x1="17"
       y1="1051.3622"
       x2="8"
       y2="1042.3622"
       id="linearGradient3816"
       xlink:href="#linearGradient3798"
       gradientUnits="userSpaceOnUse" />
    <linearGradient
       x1="17"
       y1="1051.3622"
       x2="8"
       y2="1042.3622"
       id="linearGradient3028"
       xlink:href="#linearGradient3798"
       gradientUnits="userSpaceOnUse" />
    <linearGradient
       x1="9"
       y1="0"
       x2="9"
       y2="16"
       id="linearGradient3815"
       xlink:href="#linearGradient3757"
       gradientUnits="userSpaceOnUse"
       gradientTransform="translate(0.24999999,0.25)" />
    <linearGradient
       x1="10"
       y1="15"
       x2="10"
       y2="1"
       id="linearGradient3825"
       xlink:href="#linearGradient3786"
       gradientUnits="userSpaceOnUse" />
    <linearGradient
       x1="9"
       y1="0"
       x2="9"
       y2="16"
       id="linearGradient3788"
       xlink:href="#linearGradient3757"
       gradientUnits="userSpaceOnUse"
       gradientTransform="translate(0.24999999,0.25)" />
    <linearGradient
       x1="10"
       y1="15"
       x2="10"
       y2="1"
       id="linearGradient3790"
       xlink:href="#linearGradient3786"
       gradientUnits="userSpaceOnUse" />
    <linearGradient
       x1="17"
       y1="1051.3622"
       x2="8"
       y2="1042.3622"
       id="linearGradient3792"
       xlink:href="#linearGradient3798"
       gradientUnits="userSpaceOnUse" />
    <linearGradient
       x1="9"
       y1="0"
       x2="9"
       y2="16"
       id="linearGradient3794"
       xlink:href="#linearGradient3757"
       gradientUnits="userSpaceOnUse"
       gradientTransform="translate(0.24999999,0.25)" />
    <linearGradient
       x1="9"
       y1="0"
       x2="9"
       y2="16"
       id="linearGradient3797"
       xlink:href="#linearGradient3757"
       gradientUnits="userSpaceOnUse"
       gradientTransform="translate(0.24999999,0.25)" />
    <linearGradient
       x1="17"
       y1="1051.3622"
       x2="8"
       y2="1042.3622"
       id="linearGradient3801"
       xlink:href="#linearGradient3798"
       gradientUnits="userSpaceOnUse"
       gradientTransform="matrix(0.71388258,0,0,0.71388258,2.6386066,-736.68549)" />
    <linearGradient
       x1="14"
       y1="0"
       x2="14"
       y2="16"
       id="linearGradient3805"
       xlink:href="#linearGradient3786"
       gradientUnits="userSpaceOnUse"
       gradientTransform="translate(0.20000005,-0.2)" />
    <linearGradient
       x1="17.75"
       y1="15.75"
       x2="17.75"
       y2="-0.25"
       id="linearGradient3808"
       xlink:href="#linearGradient3757"
       gradientUnits="userSpaceOnUse"
       gradientTransform="translate(16,-0.5)" />
    <linearGradient
       x1="9"
       y1="0"
       x2="9"
       y2="16"
       id="linearGradient3814"
       xlink:href="#linearGradient3757"
       gradientUnits="userSpaceOnUse"
       gradientTransform="translate(0.24999999,0.25)" />
    <linearGradient
       x1="16"
       y1="19"
       x2="16"
       y2="3"
       id="linearGradient4753"
       xlink:href="#linearGradient4747"
       gradientUnits="userSpaceOnUse" />
    <linearGradient
       x1="5"
       y1="16"
       x2="5"
       y2="0"
       id="linearGradient4237"
       xlink:href="#linearGradient4231"
       gradientUnits="userSpaceOnUse" />
    <linearGradient
       x1="5"
       y1="16"
       x2="5"
       y2="0"
       id="linearGradient4243"
       xlink:href="#linearGradient4245"
       gradientUnits="userSpaceOnUse" />
    <clipPath
       id="clipPath4258">
      <path
         d="M 16,8 A 8,8 0 1 1 0,8 8,8 0 1 1 16,8 z"
         id="path4260"
         style="fill:#ff01e5;fill-opacity:0.16465867;stroke:none" />
    </clipPath>
    <linearGradient
       x1="6.5"
       y1="16.5"
       x2="6.5"
       y2="0.5"
       id="linearGradient4274"
       xlink:href="#linearGradient4268"
       gradientUnits="userSpaceOnUse" />
    <clipPath
       id="clipPath4350">
      <path
         d="m 15.5,8 a 7.5,7.5 0 1 1 -15,0 7.5,7.5 0 1 1 15,0 z"
         id="path4352"
         style="fill:#ff01e5;fill-opacity:0.16465867;stroke:none" />
    </clipPath>
    <clipPath
       id="clipPath4354">
      <path
         d="m 15.5,8 a 7.5,7.5 0 1 1 -15,0 7.5,7.5 0 1 1 15,0 z"
         transform="matrix(0.84210526,0,0,0.84210526,-5.0526316,-2.5263158)"
         id="path4356"
         style="fill:#ff01e5;fill-opacity:0.16465867;stroke:none" />
    </clipPath>
  </defs>
  <metadata
     id="metadata7">
    <rdf:RDF>
      <cc:Work
         rdf:about="">
        <dc:format>image/svg+xml</dc:format>
        <dc:type
           rdf:resource="http://purl.org/dc/dcmitype/StillImage" />
        <dc:title />
      </cc:Work>
    </rdf:RDF>
  </metadata>
  <g
     transform="scale(5.625,5.625)"
     id="g4358">
    <path
       d="m 15.5,8 a 7.5,7.5 0 1 1 -15,0 7.5,7.5 0 1 1 15,0 z"
       id="path3461"
       style="fill:url(#linearGradient4237);fill-opacity:1;stroke:none" />
    <path
       d="M 16,8 A 8,8 0 1 1 0,8 8,8 0 1 1 16,8 z"
       transform="matrix(1.1875,0,0,1.1875,6,3)"
       clip-path="url(#clipPath4354)"
       id="path4241"
       style="opacity:0.625;fill:url(#linearGradient4243);fill-opacity:1;stroke:none" />
    <path
       d="M 3.440625,4.90625 7.55,2.609375 3.89375,7.796875 10.26875,3 6.83125,8.625"
       inkscape:connector-curvature="0"
       id="path3827"
       style="fill:none;stroke:#333333;stroke-width:0.75;stroke-linecap:round;stroke-linejoin:round;stroke-miterlimit:4;stroke-opacity:1;stroke-dasharray:none" />
    <rect
       width="16"
       height="16"
       ry="0"
       x="0"
       y="0"
       id="rect3938"
       style="fill:#000000;fill-opacity:0;stroke:none" />
    <path
       d="m 15.75,8.5 a 7.25,7.25 0 1 1 -14.5,0 7.25,7.25 0 1 1 14.5,0 z"
       transform="translate(-0.5,-0.5)"
       id="path4266"
       style="fill:none;stroke:url(#linearGradient4274);stroke-width:0.5;stroke-miterlimit:4;stroke-opacity:1;stroke-dasharray:none" />
    <path
       d="M 9.7774323,14.577552 7.992726,14.220611 c 0,0 -0.7339884,-0.100586 -0.7138826,-0.713882 0.024133,-0.736085 0.7138826,-0.713883 0.7138826,-0.713883 l 1.4277651,0 -2.8555303,-2.85553 c 0,0 -0.5354119,-0.5354123 0,-1.0708242 0.5354119,-0.5354119 1.0708239,0 1.0708239,0 l 1.7847064,1.7847062 -0.071388,-0.07139 c 0,0 -0.535412,-0.535412 0,-1.070824 0.5354114,-0.5354118 1.0708229,0 1.0708229,0 l 0.42833,0.42833 -0.07139,-0.07139 c 0,0 -0.535411,-0.5354119 0,-1.0708239 0.535412,-0.5354119 1.070824,0 1.070824,0 l 0.428329,0.4283296 -0.07139,-0.071388 c 0,0 -0.535412,-0.5354119 0,-1.0708238 0.535412,-0.535412 1.070824,0 1.070824,0 L 15.918,10.723 15.417856,15.933998 11.562135,14.934491 z"
       inkscape:connector-curvature="0"
       clip-path="url(#clipPath4350)"
       id="path3822"
       style="fill:url(#linearGradient3801);fill-opacity:1;stroke:#a86228;stroke-width:0.75;stroke-linecap:round;stroke-linejoin:round;stroke-miterlimit:4;stroke-opacity:1;stroke-dasharray:none" />
  </g>
</svg>
