<?xml version="1.0" encoding="UTF-8" standalone="no"?>
<!-- Created with Inkscape (http://www.inkscape.org/) -->

<svg
   xmlns:dc="http://purl.org/dc/elements/1.1/"
   xmlns:cc="http://creativecommons.org/ns#"
   xmlns:rdf="http://www.w3.org/1999/02/22-rdf-syntax-ns#"
   xmlns:svg="http://www.w3.org/2000/svg"
   xmlns="http://www.w3.org/2000/svg"
   xmlns:xlink="http://www.w3.org/1999/xlink"
   xmlns:sodipodi="http://sodipodi.sourceforge.net/DTD/sodipodi-0.dtd"
   xmlns:inkscape="http://www.inkscape.org/namespaces/inkscape"
   width="32"
   height="32"
   id="svg2"
   version="1.1"
   inkscape:version="0.48.5 r10040"
   sodipodi:docname="params.svg">
  <defs
     id="defs4" />
  <sodipodi:namedview
     id="base"
     pagecolor="#ffffff"
     bordercolor="#666666"
     borderopacity="1.0"
     inkscape:pageopacity="0.0"
     inkscape:pageshadow="2"
     inkscape:zoom="11.313708"
     inkscape:cx="21.589118"
     inkscape:cy="11.097304"
     inkscape:document-units="px"
     inkscape:current-layer="layer1"
     showgrid="false"
     inkscape:window-width="1366"
     inkscape:window-height="707"
     inkscape:window-x="0"
     inkscape:window-y="25"
     inkscape:window-maximized="1"
     inkscape:snap-bbox="true">
    <inkscape:grid
       type="xygrid"
       id="grid2985"
       empspacing="5"
       visible="true"
       enabled="true"
       snapvisiblegridlinesonly="true" />
  </sodipodi:namedview>
  <metadata
     id="metadata7">
    <rdf:RDF>
      <cc:Work
         rdf:about="">
        <dc:format>image/svg+xml</dc:format>
        <dc:type
           rdf:resource="http://purl.org/dc/dcmitype/StillImage" />
        <dc:title />
      </cc:Work>
    </rdf:RDF>
  </metadata>
  <g
     inkscape:label="Layer 1"
     inkscape:groupmode="layer"
     id="layer1"
     transform="translate(0,-1020.3622)">
    <g
       id="g3774">
      <g
         transform="translate(1,0)"
         id="g3765">
        <path
           inkscape:connector-curvature="0"
           style="fill:none;stroke:#333333;stroke-width:2;stroke-miterlimit:4;stroke-opacity:1;stroke-dasharray:none"
           d="M 7.5,1 C 6.115,1 5,2.115 5,3.5 L 5,7.59375 C 5.7486855,7.2121166 6.6020334,7 7.5,7 8.3979666,7 9.2513145,7.2121166 10,7.59375 L 10,3.5 C 10,2.115 8.885,1 7.5,1 z M 5,17.40625 5,28.5 C 5,29.885 6.115,31 7.5,31 8.885,31 10,29.885 10,28.5 L 10,17.40625 C 9.2513145,17.787883 8.3979666,18 7.5,18 6.6020334,18 5.7486855,17.787883 5,17.40625 z"
           transform="translate(0,1020.3622)"
           id="rect2988" />
        <path
           sodipodi:type="arc"
           style="fill:none;stroke:#333333;stroke-width:2;stroke-linecap:round;stroke-linejoin:round;stroke-miterlimit:4;stroke-opacity:1;stroke-dasharray:none"
           id="path3760"
           sodipodi:cx="7.5"
           sodipodi:cy="11.5"
           sodipodi:rx="5.5"
           sodipodi:ry="5.5"
           d="M 13,11.5 C 13,14.537566 10.537566,17 7.5,17 4.4624339,17 2,14.537566 2,11.5 2,8.4624339 4.4624339,6 7.5,6 10.537566,6 13,8.4624339 13,11.5 z"
           transform="translate(0,1021.3622)" />
      </g>
      <use
         height="32"
         width="32"
         transform="matrix(1,0,0,-1,15,2072.7244)"
         id="use3769"
         xlink:href="#g3765"
         y="0"
         x="0" />
    </g>
  </g>
</svg>
