<?xml version="1.0" encoding="UTF-8" standalone="no"?>
<!-- Created with Inkscape (http://www.inkscape.org/) -->

<svg
   xmlns:dc="http://purl.org/dc/elements/1.1/"
   xmlns:cc="http://creativecommons.org/ns#"
   xmlns:rdf="http://www.w3.org/1999/02/22-rdf-syntax-ns#"
   xmlns:svg="http://www.w3.org/2000/svg"
   xmlns="http://www.w3.org/2000/svg"
   xmlns:xlink="http://www.w3.org/1999/xlink"
   xmlns:sodipodi="http://sodipodi.sourceforge.net/DTD/sodipodi-0.dtd"
   xmlns:inkscape="http://www.inkscape.org/namespaces/inkscape"
   width="32"
   height="32"
   id="svg2"
   version="1.1"
   inkscape:version="0.48.5 r10040"
   sodipodi:docname="pick.svg">
  <defs
     id="defs4" />
  <sodipodi:namedview
     id="base"
     pagecolor="#ffffff"
     bordercolor="#666666"
     borderopacity="1.0"
     inkscape:pageopacity="0.0"
     inkscape:pageshadow="2"
     inkscape:zoom="1"
     inkscape:cx="11.25723"
     inkscape:cy="13.449873"
     inkscape:document-units="px"
     inkscape:current-layer="layer1"
     showgrid="false"
     inkscape:snap-bbox="true"
     showborder="false"
     inkscape:window-width="1366"
     inkscape:window-height="707"
     inkscape:window-x="0"
     inkscape:window-y="25"
     inkscape:window-maximized="1">
    <inkscape:grid
       type="xygrid"
       id="grid3221"
       empspacing="5"
       visible="true"
       enabled="true"
       snapvisiblegridlinesonly="true" />
  </sodipodi:namedview>
  <metadata
     id="metadata7">
    <rdf:RDF>
      <cc:Work
         rdf:about="">
        <dc:format>image/svg+xml</dc:format>
        <dc:type
           rdf:resource="http://purl.org/dc/dcmitype/StillImage" />
        <dc:title />
      </cc:Work>
    </rdf:RDF>
  </metadata>
  <g
     inkscape:label="Layer 1"
     inkscape:groupmode="layer"
     id="layer1"
     transform="translate(0,-1020.3622)">
    <path
       style="fill:none;stroke:#333333;stroke-width:2;stroke-linecap:butt;stroke-linejoin:round;stroke-miterlimit:4;stroke-opacity:1;stroke-dasharray:none"
       d="M 4,1044.3622 5.0267857,1043.3354 18,1030.3622 l 4,4 0,0 L 8.9933036,1047.3689 8,1048.3622 c -1,1 -4,1 -6,3 l -1,-1 c 2,-2 2,-5 3,-6 z"
       id="path4038"
       inkscape:connector-curvature="0"
       sodipodi:nodetypes="cccccccccc" />
    <path
       style="fill:none;stroke:#333333;stroke-width:2;stroke-linecap:butt;stroke-linejoin:round;stroke-miterlimit:4;stroke-opacity:1;stroke-dasharray:none"
       d="M 18,10 17,9 c 0,0 -0.9,-1.1 0.1,-2.1 1,-1 2.1,-0.1 2.1,-0.1 l 1,1 c 0,0 -0.3,-3.3 1.7,-5.3 2,-2 5.4,-1.8 7.4,0.2 2,2 2.2,5.4 0.2,7.4 -2,2 -5.3,1.7 -5.3,1.7 l 1,1 c 0,0 0.9,1.1 -0.1,2.1 -1,1 -2.1,0.1 -2.1,0.1 l -1,-1"
       id="path4548"
       inkscape:connector-curvature="0"
       sodipodi:nodetypes="cczcczzzcczcc"
       transform="translate(0,1020.3622)" />
    <path
       style="fill:#bfff00;fill-opacity:1;stroke:#333333;stroke-width:2;stroke-linecap:round;stroke-linejoin:round;stroke-miterlimit:4;stroke-opacity:1;stroke-dasharray:none"
       d="M 8,22 z"
       id="path4550"
       inkscape:connector-curvature="0"
       transform="translate(0,1020.3622)" />
    <path
       style="fill:#bfff00;fill-opacity:1;stroke:#333333;stroke-width:1;stroke-linecap:round;stroke-linejoin:round;stroke-miterlimit:4;stroke-opacity:1;stroke-dasharray:none"
       d="m 7.9,1041.3622 1,1"
       id="path4552"
       inkscape:connector-curvature="0" />
    <use
       x="0"
       y="0"
       xlink:href="#path4552"
       id="use4556"
       transform="translate(2,-2)"
       width="32"
       height="32" />
    <use
       x="0"
       y="0"
       xlink:href="#path4552"
       id="use4558"
       transform="translate(4,-4)"
       width="32"
       height="32" />
    <use
       x="0"
       y="0"
       xlink:href="#path4552"
       id="use4560"
       transform="translate(6,-6)"
       width="32"
       height="32" />
  </g>
</svg>
