<?xml version="1.0" encoding="UTF-8" standalone="no"?>
<!-- Created with Inkscape (http://www.inkscape.org/) -->

<svg
   xmlns:dc="http://purl.org/dc/elements/1.1/"
   xmlns:cc="http://creativecommons.org/ns#"
   xmlns:rdf="http://www.w3.org/1999/02/22-rdf-syntax-ns#"
   xmlns:svg="http://www.w3.org/2000/svg"
   xmlns="http://www.w3.org/2000/svg"
   xmlns:xlink="http://www.w3.org/1999/xlink"
   xmlns:sodipodi="http://sodipodi.sourceforge.net/DTD/sodipodi-0.dtd"
   xmlns:inkscape="http://www.inkscape.org/namespaces/inkscape"
   version="1.1"
   width="120"
   height="120"
   id="svg2"
   inkscape:version="0.48.4 r9939"
   sodipodi:docname="128.svg">
  <sodipodi:namedview
     pagecolor="#ffffff"
     bordercolor="#666666"
     borderopacity="1"
     objecttolerance="10"
     gridtolerance="10"
     guidetolerance="10"
     inkscape:pageopacity="0"
     inkscape:pageshadow="2"
     inkscape:window-width="1920"
     inkscape:window-height="1044"
     id="namedview16"
     showgrid="false"
     inkscape:snap-bbox="true"
     showborder="false"
     inkscape:zoom="2.8284271"
     inkscape:cx="154.20575"
     inkscape:cy="109.58263"
     inkscape:window-x="1920"
     inkscape:window-y="0"
     inkscape:window-maximized="1"
     inkscape:current-layer="svg2">
    <inkscape:grid
       type="xygrid"
       id="grid2993"
       empspacing="5"
       visible="true"
       enabled="true"
       snapvisiblegridlinesonly="true" />
  </sodipodi:namedview>
  <defs
     id="defs4">
    <linearGradient
       id="linearGradient3798">
      <stop
         style="stop-color:#f2cb86;stop-opacity:1;"
         offset="0"
         id="stop3800" />
      <stop
         style="stop-color:#f6daa8;stop-opacity:1;"
         offset="1"
         id="stop3802" />
    </linearGradient>
    <linearGradient
       id="linearGradient3786">
      <stop
         offset="0"
         style="stop-color:#ececec;stop-opacity:1;"
         id="stop3788" />
      <stop
         offset="1"
         style="stop-color:#dfdfdf;stop-opacity:1;"
         id="stop3790" />
    </linearGradient>
    <linearGradient
       id="linearGradient3757">
      <stop
         id="stop3759"
         style="stop-color:#e1e1e1;stop-opacity:1;"
         offset="0" />
      <stop
         id="stop3761"
         style="stop-color:#a6a6a6;stop-opacity:1;"
         offset="1" />
    </linearGradient>
    <linearGradient
       x1="25"
       y1="32"
       x2="25"
       y2="0"
       id="linearGradient3763"
       xlink:href="#linearGradient3757"
       gradientUnits="userSpaceOnUse" />
    <clipPath
       id="clipPath3762">
      <rect
         width="16"
         height="16"
         ry="0"
         x="0"
         y="1036.3622"
         id="rect3764"
         style="fill:#000000;fill-opacity:0.33734939;stroke:none" />
    </clipPath>
    <linearGradient
       inkscape:collect="always"
       xlink:href="#linearGradient3798"
       id="linearGradient3804"
       x1="17"
       y1="1051.3622"
       x2="8"
       y2="1042.3622"
       gradientUnits="userSpaceOnUse" />
    <linearGradient
       inkscape:collect="always"
       xlink:href="#linearGradient3757"
       id="linearGradient3812"
       gradientUnits="userSpaceOnUse"
       gradientTransform="scale(0.5,0.5)"
       x1="25"
       y1="32"
       x2="25"
       y2="0" />
    <linearGradient
       inkscape:collect="always"
       xlink:href="#linearGradient3786"
       id="linearGradient3814"
       gradientUnits="userSpaceOnUse"
       x1="12"
       y1="14"
       x2="12"
       y2="0" />
    <linearGradient
       inkscape:collect="always"
       xlink:href="#linearGradient3798"
       id="linearGradient3816"
       gradientUnits="userSpaceOnUse"
       x1="17"
       y1="1051.3622"
       x2="8"
       y2="1042.3622" />
  </defs>
  <metadata
     id="metadata7">
    <rdf:RDF>
      <cc:Work
         rdf:about="">
        <dc:format>image/svg+xml</dc:format>
        <dc:type
           rdf:resource="http://purl.org/dc/dcmitype/StillImage" />
        <dc:title></dc:title>
      </cc:Work>
    </rdf:RDF>
  </metadata>
  <g
     id="g3806"
     transform="scale(7.5,7.5)">
    <path
       inkscape:connector-curvature="0"
       style="fill:url(#linearGradient3812);fill-opacity:1;stroke:none"
       id="path2987"
       d="M 16,8 A 8,8 0 0 1 0,8 8,8 0 1 1 16,8 z" />
    <path
       d="m 15,7 c 0,3.865993 -3.134007,7 -7,7 C 4.1340068,14 1,10.865993 1,7 1,3.1340068 4.1340068,0 8,0 c 3.865993,0 7,3.1340068 7,7 z"
       sodipodi:ry="7"
       sodipodi:rx="7"
       sodipodi:cy="7"
       sodipodi:cx="8"
       id="path2995"
       style="fill:url(#linearGradient3814);fill-opacity:1;stroke:none"
       sodipodi:type="arc" />
    <path
       style="fill:none;stroke:#333333;stroke-width:1;stroke-linecap:round;stroke-linejoin:round;stroke-miterlimit:4;stroke-opacity:1;stroke-dasharray:none"
       id="path3828"
       inkscape:connector-curvature="0"
       d="M 6,8.1875 C 5.96058,8.2035 3.3021669,6.6311 6.75,4.2812 9.133835,2.6566 6.625,1 6.625,1" />
    <path
       sodipodi:nodetypes="ccscccscccscccscccsccccc"
       transform="translate(0,-1036.3622)"
       style="fill:url(#linearGradient3816);fill-opacity:1;stroke:#a86228;stroke-width:1;stroke-linecap:round;stroke-linejoin:round;stroke-miterlimit:4;stroke-opacity:1;stroke-dasharray:none"
       id="path3822"
       clip-path="url(#clipPath3762)"
       inkscape:connector-curvature="0"
       d="m 10,1052.3622 -2.5,-0.5 c 0,0 -1.028164,-0.1409 -1,-1 0.033805,-1.0311 1,-1 1,-1 l 2,0 -4,-4 c 0,0 -0.75,-0.75 0,-1.5 0.75,-0.75 1.5,0 1.5,0 l 2.5,2.5 -0.1,-0.1 c 0,0 -0.75,-0.75 0,-1.5 0.75,-0.75 1.5,0 1.5,0 l 0.6,0.6 -0.1,-0.1 c 0,0 -0.75,-0.75 0,-1.5 0.75,-0.75 1.5,0 1.5,0 l 0.6,0.6 -0.1,-0.1 c 0,0 -0.75,-0.75 0,-1.5 0.75,-0.75 1.5,0 1.5,0 l 1.6,1.6 0,8 -4,0 z" />
  </g>
</svg>
