<?xml version="1.0" encoding="UTF-8" standalone="no"?>
<!-- Created with Inkscape (http://www.inkscape.org/) -->

<svg
   xmlns:dc="http://purl.org/dc/elements/1.1/"
   xmlns:cc="http://creativecommons.org/ns#"
   xmlns:rdf="http://www.w3.org/1999/02/22-rdf-syntax-ns#"
   xmlns:svg="http://www.w3.org/2000/svg"
   xmlns="http://www.w3.org/2000/svg"
   xmlns:xlink="http://www.w3.org/1999/xlink"
   xmlns:sodipodi="http://sodipodi.sourceforge.net/DTD/sodipodi-0.dtd"
   xmlns:inkscape="http://www.inkscape.org/namespaces/inkscape"
   version="1.1"
   width="128"
   height="128"
   id="svg2"
   inkscape:version="0.48.5 r10040"
   sodipodi:docname="128.svg">
  <sodipodi:namedview
     pagecolor="#ffffff"
     bordercolor="#666666"
     borderopacity="1"
     objecttolerance="10"
     gridtolerance="10"
     guidetolerance="10"
     inkscape:pageopacity="0"
     inkscape:pageshadow="2"
     inkscape:window-width="1920"
     inkscape:window-height="1017"
     id="namedview26"
     showgrid="false"
     showborder="false"
     inkscape:zoom="5.6568543"
     inkscape:cx="87.07958"
     inkscape:cy="30.238324"
     inkscape:window-x="0"
     inkscape:window-y="27"
     inkscape:window-maximized="1"
     inkscape:current-layer="svg2">
    <inkscape:grid
       empspacing="5"
       visible="true"
       enabled="true"
       snapvisiblegridlinesonly="true"
       type="xygrid"
       id="grid3003" />
  </sodipodi:namedview>
  <defs
     id="defs4">
    <linearGradient
       id="linearGradient4268">
      <stop
         style="stop-color:#ffffff;stop-opacity:0.50196081;"
         offset="0"
         id="stop4270" />
      <stop
         style="stop-color:#ffffff;stop-opacity:0;"
         offset="1"
         id="stop4272" />
    </linearGradient>
    <linearGradient
       id="linearGradient4245">
      <stop
         id="stop4247"
         offset="0"
         style="stop-color:#000000;stop-opacity:0.26875001;" />
      <stop
         id="stop4249"
         offset="1"
         style="stop-color:#000000;stop-opacity:0.03125;" />
    </linearGradient>
    <linearGradient
       id="linearGradient4231">
      <stop
         style="stop-color:#c9c9c9;stop-opacity:1;"
         offset="0"
         id="stop4233" />
      <stop
         style="stop-color:#f0f0f0;stop-opacity:1;"
         offset="1"
         id="stop4235" />
    </linearGradient>
    <linearGradient
       id="linearGradient3798">
      <stop
         id="stop3800"
         style="stop-color:#f2cb86;stop-opacity:1"
         offset="0" />
      <stop
         id="stop3802"
         style="stop-color:#f6daa8;stop-opacity:1"
         offset="1" />
    </linearGradient>
    <linearGradient
       inkscape:collect="always"
       xlink:href="#linearGradient3798"
       id="linearGradient3801"
       gradientUnits="userSpaceOnUse"
       x1="17"
       y1="1051.3622"
       x2="8"
       y2="1042.3622"
       gradientTransform="matrix(0.71388258,0,0,0.71388258,2.6386066,-736.68549)" />
    <linearGradient
       inkscape:collect="always"
       xlink:href="#linearGradient4231"
       id="linearGradient4237"
       x1="5"
       y1="16"
       x2="5"
       y2="0"
       gradientUnits="userSpaceOnUse" />
    <linearGradient
       inkscape:collect="always"
       xlink:href="#linearGradient4245"
       id="linearGradient4243"
       gradientUnits="userSpaceOnUse"
       x1="5"
       y1="16"
       x2="5"
       y2="0" />
    <linearGradient
       inkscape:collect="always"
       xlink:href="#linearGradient4268"
       id="linearGradient4274"
       x1="6.5"
       y1="16.5"
       x2="6.5"
       y2="0.5"
       gradientUnits="userSpaceOnUse" />
    <clipPath
       clipPathUnits="userSpaceOnUse"
       id="clipPath4350">
      <path
         sodipodi:type="arc"
         style="fill:#ff01e5;fill-opacity:0.16465867;stroke:none"
         id="path4352"
         sodipodi:cx="8"
         sodipodi:cy="8"
         sodipodi:rx="7.5"
         sodipodi:ry="7.5"
         d="m 15.5,8 a 7.5,7.5 0 1 1 -15,0 7.5,7.5 0 1 1 15,0 z" />
    </clipPath>
    <clipPath
       clipPathUnits="userSpaceOnUse"
       id="clipPath4354">
      <path
         sodipodi:type="arc"
         style="fill:#ff01e5;fill-opacity:0.16465867;stroke:none"
         id="path4356"
         sodipodi:cx="8"
         sodipodi:cy="8"
         sodipodi:rx="7.5"
         sodipodi:ry="7.5"
         d="m 15.5,8 a 7.5,7.5 0 1 1 -15,0 7.5,7.5 0 1 1 15,0 z"
         transform="matrix(0.84210526,0,0,0.84210526,-5.0526316,-2.5263158)" />
    </clipPath>
  </defs>
  <metadata
     id="metadata7">
    <rdf:RDF>
      <cc:Work
         rdf:about="">
        <dc:format>image/svg+xml</dc:format>
        <dc:type
           rdf:resource="http://purl.org/dc/dcmitype/StillImage" />
        <dc:title />
      </cc:Work>
    </rdf:RDF>
  </metadata>
  <g
     id="g4358"
     transform="scale(8,8)">
    <path
       d="m 15.5,8 c 0,4.142136 -3.357864,7.5 -7.5,7.5 C 3.8578644,15.5 0.5,12.142136 0.5,8 0.5,3.8578644 3.8578644,0.5 8,0.5 c 4.142136,0 7.5,3.3578644 7.5,7.5 z"
       sodipodi:ry="7.5"
       sodipodi:rx="7.5"
       sodipodi:cy="8"
       sodipodi:cx="8"
       id="path3461"
       style="fill:url(#linearGradient4237);fill-opacity:1;stroke:none"
       sodipodi:type="arc" />
    <path
       clip-path="url(#clipPath4354)"
       transform="matrix(1.1875,0,0,1.1875,6,3)"
       sodipodi:type="arc"
       style="opacity:0.625;fill:url(#linearGradient4243);fill-opacity:1;stroke:none"
       id="path4241"
       sodipodi:cx="8"
       sodipodi:cy="8"
       sodipodi:rx="8"
       sodipodi:ry="8"
       d="m 16,8 c 0,4.418278 -3.581722,8 -8,8 C 3.581722,16 0,12.418278 0,8 0,3.581722 3.581722,0 8,0 c 4.418278,0 8,3.581722 8,8 z" />
    <path
       d="M 3.440625,4.90625 7.55,2.609375 3.89375,7.796875 10.26875,3 6.83125,8.625"
       inkscape:connector-curvature="0"
       id="path3827"
       style="fill:none;stroke:#333333;stroke-width:0.75;stroke-linecap:round;stroke-linejoin:round;stroke-miterlimit:4;stroke-opacity:1;stroke-dasharray:none" />
    <rect
       width="16"
       height="16"
       ry="0"
       x="0"
       y="0"
       id="rect3938"
       style="fill:#000000;fill-opacity:0;stroke:none" />
    <path
       transform="translate(-0.5,-0.5)"
       d="m 15.75,8.5 c 0,4.004064 -3.245936,7.25 -7.25,7.25 -4.0040644,0 -7.25,-3.245936 -7.25,-7.25 0,-4.0040644 3.2459356,-7.25 7.25,-7.25 4.004064,0 7.25,3.2459356 7.25,7.25 z"
       sodipodi:ry="7.25"
       sodipodi:rx="7.25"
       sodipodi:cy="8.5"
       sodipodi:cx="8.5"
       id="path4266"
       style="fill:none;stroke:url(#linearGradient4274);stroke-width:0.5;stroke-miterlimit:4;stroke-opacity:1;stroke-dasharray:none"
       sodipodi:type="arc" />
    <path
       d="M 9.7774323,14.577552 7.992726,14.220611 c 0,0 -0.7339884,-0.100586 -0.7138826,-0.713882 0.024133,-0.736085 0.7138826,-0.713883 0.7138826,-0.713883 l 1.4277651,0 -2.8555303,-2.85553 c 0,0 -0.5354119,-0.5354123 0,-1.0708242 0.5354119,-0.5354119 1.0708239,0 1.0708239,0 l 1.7847064,1.7847062 -0.071388,-0.07139 c 0,0 -0.535412,-0.535412 0,-1.070824 0.5354114,-0.5354118 1.0708229,0 1.0708229,0 l 0.42833,0.42833 -0.07139,-0.07139 c 0,0 -0.535411,-0.5354119 0,-1.0708239 0.535412,-0.5354119 1.070824,0 1.070824,0 l 0.428329,0.4283296 -0.07139,-0.071388 c 0,0 -0.535412,-0.5354119 0,-1.0708238 0.535412,-0.535412 1.070824,0 1.070824,0 L 15.918,10.723 15.417856,15.933998 11.562135,14.934491 z"
       inkscape:connector-curvature="0"
       clip-path="url(#clipPath4350)"
       id="path3822"
       style="fill:url(#linearGradient3801);fill-opacity:1;stroke:#a86228;stroke-width:0.75;stroke-linecap:round;stroke-linejoin:round;stroke-miterlimit:4;stroke-opacity:1;stroke-dasharray:none"
       sodipodi:nodetypes="ccscccscccscccscccsccccc" />
  </g>
</svg>
