<?xml version="1.0" encoding="UTF-8" standalone="no"?>
<!-- Created with Inkscape (http://www.inkscape.org/) -->

<svg
   xmlns:dc="http://purl.org/dc/elements/1.1/"
   xmlns:cc="http://creativecommons.org/ns#"
   xmlns:rdf="http://www.w3.org/1999/02/22-rdf-syntax-ns#"
   xmlns:svg="http://www.w3.org/2000/svg"
   xmlns="http://www.w3.org/2000/svg"
   xmlns:xlink="http://www.w3.org/1999/xlink"
   xmlns:sodipodi="http://sodipodi.sourceforge.net/DTD/sodipodi-0.dtd"
   xmlns:inkscape="http://www.inkscape.org/namespaces/inkscape"
   width="90"
   height="90"
   id="svg2"
   version="1.1"
   inkscape:version="0.48.4 r9939"
   sodipodi:docname="128.svg">
  <defs
     id="defs4">
    <linearGradient
       id="linearGradient3757">
      <stop
         style="stop-color:#dddddd;stop-opacity:1;"
         offset="0"
         id="stop3759" />
      <stop
         style="stop-color:#eeeeee;stop-opacity:1;"
         offset="1"
         id="stop3761" />
    </linearGradient>
    <clipPath
       clipPathUnits="userSpaceOnUse"
       id="clipPath3762">
      <rect
         style="fill:#000000;fill-opacity:0.33734939;stroke:none"
         id="rect3764"
         width="16"
         height="16"
         x="0"
         y="1036.3622"
         ry="0" />
    </clipPath>
    <linearGradient
       inkscape:collect="always"
       xlink:href="#linearGradient3757"
       id="linearGradient3776"
       gradientUnits="userSpaceOnUse"
       x1="25"
       y1="32"
       x2="25"
       y2="0" />
  </defs>
  <sodipodi:namedview
     id="base"
     pagecolor="#ffffff"
     bordercolor="#666666"
     borderopacity="1.0"
     inkscape:pageopacity="0.0"
     inkscape:pageshadow="2"
     inkscape:zoom="3.1953125"
     inkscape:cx="91.849392"
     inkscape:cy="81.727861"
     inkscape:document-units="px"
     inkscape:current-layer="layer1"
     showgrid="true"
     inkscape:snap-bbox="true"
     inkscape:snap-global="true"
     inkscape:window-width="1920"
     inkscape:window-height="1044"
     inkscape:window-x="1920"
     inkscape:window-y="0"
     inkscape:window-maximized="1">
    <inkscape:grid
       type="xygrid"
       id="grid2985"
       empspacing="5"
       visible="true"
       enabled="true"
       snapvisiblegridlinesonly="true" />
  </sodipodi:namedview>
  <metadata
     id="metadata7">
    <rdf:RDF>
      <cc:Work
         rdf:about="">
        <dc:format>image/svg+xml</dc:format>
        <dc:type
           rdf:resource="http://purl.org/dc/dcmitype/StillImage" />
        <dc:title></dc:title>
      </cc:Work>
    </rdf:RDF>
  </metadata>
  <g
     inkscape:label="Layer 1"
     inkscape:groupmode="layer"
     id="layer1"
     transform="translate(0,-962.3622)">
    <g
       id="g3771"
       transform="matrix(5.625,0,0,5.625,0,-4867.1752)">
      <path
         transform="matrix(0.5,0,0,0.5,0,1036.3622)"
         d="M 32,16 C 32,24.836556 24.836556,32 16,32 7.163444,32 0,24.836556 0,16 0,7.163444 7.163444,0 16,0 24.836556,0 32,7.163444 32,16 z"
         sodipodi:ry="16"
         sodipodi:rx="16"
         sodipodi:cy="16"
         sodipodi:cx="16"
         id="path2987"
         style="fill:url(#linearGradient3776);fill-opacity:1;stroke:none"
         sodipodi:type="arc" />
      <path
         sodipodi:nodetypes="csc"
         inkscape:connector-curvature="0"
         id="path3828"
         d="m 6,1044.5497 c -0.03942,0.016 -2.6978331,-1.5564 0.75,-3.9063 2.383835,-1.6246 -0.125,-3.2812 -0.125,-3.2812"
         style="fill:none;stroke:#333333;stroke-width:1;stroke-linecap:round;stroke-linejoin:round;stroke-miterlimit:4;stroke-opacity:1;stroke-dasharray:none" />
      <path
         clip-path="url(#clipPath3762)"
         sodipodi:nodetypes="ccsccczccczccczccczccccc"
         inkscape:connector-curvature="0"
         id="path3822"
         d="m 10,1052.3622 -2.5,-0.5 c 0,0 -1.028164,-0.1409 -1,-1 0.033805,-1.0311 1,-1 1,-1 l 2,0 -4,-4 c 0,0 -0.75,-0.75 0,-1.5 0.75,-0.75 1.5,0 1.5,0 l 3,3 -1,-1 c 0,0 -0.75,-0.75 0,-1.5 0.75,-0.75 1.5,0 1.5,0 l 1.5,1.5 -1,-1 c 0,0 -0.75,-0.75 0,-1.5 0.75,-0.75 1.5,0 1.5,0 l 1.5,1.5 -1,-1 c 0,0 -0.75,-0.75 0,-1.5 0.75,-0.75 1.5,0 1.5,0 l 2,2 0,8 -4,0 z"
         style="fill:#f6e1a8;fill-opacity:1;stroke:#a86228;stroke-width:1;stroke-linecap:round;stroke-linejoin:round;stroke-miterlimit:4;stroke-opacity:1;stroke-dasharray:none" />
    </g>
  </g>
</svg>
